<?xml version="1.0" encoding="UTF-8"?>
<svg version="1.1" xmlns="http://www.w3.org/2000/svg" width="1024" height="1024">
<path d="M0 0 C337.92 0 675.84 0 1024 0 C1024 337.92 1024 675.84 1024 1024 C686.08 1024 348.16 1024 0 1024 C0 686.08 0 348.16 0 0 Z " fill="#0F0F0D" transform="translate(0,0)"/>
<path d="M0 0 C21.45 0 42.9 0 65 0 C65 101.31 65 202.62 65 307 C82.49 307 99.98 307 118 307 C118 324.16 118 341.32 118 359 C61.9 359 5.8 359 -52 359 C-52 341.84 -52 324.68 -52 307 C-34.84 307 -17.68 307 0 307 C0 239.68 0 172.36 0 103 C-17.49 103 -34.98 103 -53 103 C-53 85.84 -53 68.68 -53 51 C-35.51 51 -18.02 51 0 51 C0 34.17 0 17.34 0 0 Z " fill="#F1EEE8" transform="translate(618,334)"/>
<path d="M0 0 C25.12125 -0.0309375 25.12125 -0.0309375 50.75 -0.0625 C58.68305176 -0.07615601 58.68305176 -0.07615601 66.77636719 -0.09008789 C73.23291016 -0.09460449 73.23291016 -0.09460449 76.25518799 -0.09544373 C78.36668102 -0.09697963 80.47817316 -0.10049733 82.58966064 -0.10557556 C85.78732834 -0.11288188 88.98494241 -0.11390643 92.18261719 -0.11352539 C93.12379772 -0.1171235 94.06497826 -0.12072161 95.03467941 -0.12442875 C95.89663548 -0.12305125 96.75859154 -0.12167376 97.64666748 -0.12025452 C98.39516338 -0.12117631 99.14365929 -0.1220981 99.91483688 -0.12304783 C102 0 102 0 106 1 C106 29.38 106 57.76 106 87 C89.83 87 73.66 87 57 87 C57 106.8 57 126.6 57 147 C73.5 147 90 147 107 147 C106.92132362 132.82096518 106.92132362 132.82096518 106.81982422 118.64208984 C106.77135553 108.23575882 107.01826403 98.25274675 109 88 C113.44741318 87.95033811 117.8946768 87.91415707 122.34228516 87.89013672 C123.85338149 87.88011661 125.36445862 87.86649679 126.87548828 87.84912109 C129.05506142 87.82469608 131.23437684 87.81347693 133.4140625 87.8046875 C134.7232666 87.79421387 136.0324707 87.78374023 137.38134766 87.77294922 C140.96022902 87.99750459 143.6442516 88.80738076 147 90 C147.07428413 113.01922436 146.96568457 136.03622453 146.78125 159.0546875 C146.7665139 160.89608999 146.7665139 160.89608999 146.7514801 162.77469254 C146.67031329 172.80815163 146.58476081 182.84156968 146.5 192.875 C146.335 212.71625 146.17 232.5575 146 253 C98.48 253 50.96 253 2 253 C1.505 253.99 1.505 253.99 1 255 C0.67 236.52 0.34 218.04 0 199 C18.48 199 36.96 199 56 199 C56 181.84 56 164.68 56 147 C37.52 147 19.04 147 0 147 C0 98.49 0 49.98 0 0 Z " fill="#0F0F0D" transform="translate(323,386)"/>
<path d="M0 0 C49.17 0 98.34 0 149 0 C152 45 152 45 152 52 C168.5 52 185 52 202 52 C202 136.15 202 220.3 202 307 C184.84 307 167.68 307 150 307 C149 306 149 306 148.87695217 303.28446865 C148.87787396 302.06124936 148.87879576 300.83803007 148.87974548 299.57774353 C148.87846385 298.55965736 148.87846385 298.55965736 148.87715632 297.52100378 C148.87549959 295.23004074 148.881026 292.93914974 148.88647461 290.64819336 C148.88675647 289.01259869 148.88659878 287.3770039 148.8860321 285.7414093 C148.88574407 281.28705414 148.89164176 276.83272566 148.89860606 272.37837672 C148.90483861 267.72853526 148.90544332 263.07869326 148.90663147 258.42884827 C148.90974508 249.61738298 148.91795887 240.80593003 148.92798096 231.99447018 C148.93914118 221.96561892 148.94465232 211.93676709 148.94967639 201.90791118 C148.96014146 181.27193236 148.9784873 160.63597047 149 140 C135.8 140 122.6 140 109 140 C109 110.63 109 81.26 109 51 C73.03 51 37.06 51 0 51 C0 34.17 0 17.34 0 0 Z " fill="#F3F1EB" transform="translate(322,334)"/>
<path d="M0 0 C17.16 0 34.32 0 52 0 C52 48.51 52 97.02 52 147 C70.48 147 88.96 147 108 147 C108 164.16 108 181.32 108 199 C89.52 199 71.04 199 52 199 C52 217.48 52 235.96 52 255 C35.17 255 18.34 255 1 255 C0.67 170.85 0.34 86.7 0 0 Z " fill="#F2F0EA" transform="translate(271,386)"/>
<path d="M0 0 C48.84 0 97.68 0 148 0 C148 16.83 148 33.66 148 51 C98.83 51 49.66 51 -1 51 C-0.67 34.17 -0.34 17.34 0 0 Z " fill="#F3F1EA" transform="translate(323,642)"/>
<path d="M0 0 C16.17 0 32.34 0 49 0 C49 19.14 49 38.28 49 58 C32.5 58 16 58 -1 58 C-1.020625 50.843125 -1.04125 43.68625 -1.0625 36.3125 C-1.071604 34.08153564 -1.08070801 31.85057129 -1.09008789 29.55200195 C-1.09301461 27.73909566 -1.09556137 25.9261887 -1.09765625 24.11328125 C-1.10277222 23.20815796 -1.10788818 22.30303467 -1.11315918 21.3704834 C-1.11411553 14.15289937 -0.55837921 7.25892969 0 0 Z " fill="#F5F3ED" transform="translate(381,475)"/>
<path d="M0 0 C49.17 0 98.34 0 149 0 C149 6.6 149 13.2 149 20 C148.67 20 148.34 20 148 20 C147.67 14.06 147.34 8.12 147 2 C99.15 2 51.3 2 2 2 C2 17.84 2 33.68 2 50 C37.97 50 73.94 50 111 50 C111 79.04 111 108.08 111 138 C123.21 138 135.42 138 148 138 C148 138.66 148 139.32 148 140 C135.13 140 122.26 140 109 140 C109 110.63 109 81.26 109 51 C73.03 51 37.06 51 0 51 C0 34.17 0 17.34 0 0 Z " fill="#E3E3E1" transform="translate(322,334)"/>
<path d="M0 0 C13.2 0 26.4 0 40 0 C40 84.15 40 168.3 40 255 C22.84 255 5.68 255 -12 255 C-12 212.76 -12 170.52 -12 127 C-11.67 127 -11.34 127 -11 127 C-11 168.91 -11 210.82 -11 254 C5.17 254 21.34 254 38 254 C38 170.84 38 87.68 38 2 C25.13 2 12.26 2 -1 2 C-0.67 1.34 -0.34 0.68 0 0 Z " fill="#F6F5F3" transform="translate(484,386)"/>
<path d="M0 0 C0.99 0 1.98 0 3 0 C3 83.82 3 167.64 3 254 C2.67 254 2.34 254 2 254 C1.98969254 253.35457245 1.97938507 252.7091449 1.96876526 252.04415894 C1.85969179 245.2619415 1.74519029 238.47983039 1.62768555 231.69775391 C1.58465632 229.17433927 1.54296227 226.65090147 1.50268555 224.12744141 C1.44419819 220.47811939 1.38073975 216.82891061 1.31640625 213.1796875 C1.29133751 211.51629837 1.29133751 211.51629837 1.26576233 209.81930542 C1.16647951 204.44299431 0.9483623 199.11583002 0.4942627 193.75732422 C-0.14761035 184.94826271 -0.13279131 176.16493876 -0.11352539 167.33642578 C-0.11324268 165.50187176 -0.11340288 163.66731763 -0.1139679 161.83276367 C-0.1142526 156.89572353 -0.10840899 151.95870812 -0.10139394 147.02167368 C-0.09510573 141.8460646 -0.0945523 136.67045484 -0.09336853 131.49484253 C-0.09027125 121.71341319 -0.08207962 111.93199514 -0.07201904 102.15057075 C-0.06080792 91.00656606 -0.0553349 79.86256081 -0.05032361 68.71855187 C-0.03989554 45.81236168 -0.02232738 22.90618147 0 0 Z " fill="#1F1E1D" transform="translate(269,387)"/>
<path d="M0 0 C48.84 0 97.68 0 148 0 C148 16.83 148 33.66 148 51 C98.83 51 49.66 51 -1 51 C-0.34 49.68 0.32 48.36 1 47 C1 47.66 1 48.32 1 49 C48.85 49 96.7 49 146 49 C146 33.16 146 17.32 146 1 C98.48 1 50.96 1 2 1 C2 8.26 2 15.52 2 23 C1.87003751 27.13559204 1.72761292 31.24720888 1.5 35.375 C1.42845703 36.80005859 1.42845703 36.80005859 1.35546875 38.25390625 C1.24188275 40.50290899 1.1235641 42.75152776 1 45 C0.67 45 0.34 45 0 45 C0 30.15 0 15.3 0 0 Z " fill="#FBFBF9" transform="translate(323,642)"/>
<path d="M0 0 C35.64 0 71.28 0 108 0 C108.33 29.37 108.66 58.74 109 89 C114.94 89.33 120.88 89.66 127 90 C127 90.33 127 90.66 127 91 C121.06 91 115.12 91 109 91 C108.505 96.94 108.505 96.94 108 103 C107.67 103 107.34 103 107 103 C107 98.71 107 94.42 107 90 C90.83 90 74.66 90 58 90 C58 94.29 58 98.58 58 103 C57.67 103 57.34 103 57 103 C57 98.05 57 93.1 57 88 C73.17 88 89.34 88 106 88 C106 59.62 106 31.24 106 2 C53.53 1.505 53.53 1.505 0 1 C0 0.67 0 0.34 0 0 Z " fill="#2C2B29" transform="translate(323,385)"/>
<path d="M0 0 C33.66 0 67.32 0 102 0 C102 0.33 102 0.66 102 1 C68.67 1 35.34 1 1 1 C1.0721875 9.03730469 1.144375 17.07460938 1.21875 25.35546875 C1.27029872 31.16763053 1.32168441 36.97979357 1.37283897 42.79195881 C1.43875187 50.27854887 1.50502099 57.76513515 1.57275391 65.25170898 C1.63224616 71.83294531 1.69044333 78.41419204 1.74781799 84.99544716 C1.76969699 87.48066921 1.79200855 89.96588749 1.81480408 92.4511013 C1.97812923 110.30186484 2.01916172 128.14846348 2 146 C19.49 145.67 36.98 145.34 55 145 C54.979375 140.05 54.95875 135.1 54.9375 130 C54.90890046 115.97715635 55.23451974 102.00462421 56 88 C56.33 88 56.66 88 57 88 C57 107.47 57 126.94 57 147 C38.19 147 19.38 147 0 147 C0 98.49 0 49.98 0 0 Z " fill="#010101" transform="translate(323,386)"/>
<path d="M0 0 C16.17 0 32.34 0 49 0 C49 19.14 49 38.28 49 58 C32.5 58 16 58 -1 58 C-1.04125 53.6275 -1.0825 49.255 -1.125 44.75 C-1.14320801 43.37682617 -1.16141602 42.00365234 -1.18017578 40.58886719 C-1.1851709 39.50250977 -1.19016602 38.41615234 -1.1953125 37.296875 C-1.20578613 36.18666992 -1.21625977 35.07646484 -1.22705078 33.93261719 C-1 31 -1 31 1 27 C1.33 36.57 1.66 46.14 2 56 C16.85 56 31.7 56 47 56 C47 38.18 47 20.36 47 2 C31.82 1.67 16.64 1.34 1 1 C1 9.25 1 17.5 1 26 C0.67 26 0.34 26 0 26 C0 17.42 0 8.84 0 0 Z " fill="#FDFDFB" transform="translate(381,475)"/>
<path d="M0 0 C0.33 0 0.66 0 1 0 C2.1444778 8.17767009 2.12823151 16.2967609 2.09765625 24.53515625 C2.09578768 26.02444918 2.09436585 27.51374273 2.09336853 29.0030365 C2.08957789 32.89425397 2.0797777 36.78543322 2.06866455 40.67663574 C2.05837559 44.65876753 2.05385498 48.64090558 2.04882812 52.62304688 C2.03815182 60.41538187 2.02111764 68.20768555 2 76 C1.67 76 1.34 76 1 76 C0.67 105.7 0.34 135.4 0 166 C-0.33 166 -0.66 166 -1 166 C-1.02333358 144.65159939 -1.04098144 123.30320088 -1.05181217 101.95479012 C-1.05697415 92.04293517 -1.06401499 82.13108815 -1.07543945 72.21923828 C-1.08538928 63.58268601 -1.09185414 54.94613948 -1.09408849 46.30958164 C-1.09539509 41.73424437 -1.09847775 37.15892349 -1.10573006 32.58359146 C-1.11249497 28.28107221 -1.11461599 23.97857616 -1.11310768 19.67605209 C-1.1133838 18.09335962 -1.11538614 16.51066641 -1.11920547 14.92797852 C-1.12415006 12.77415116 -1.12299544 10.62041248 -1.12025452 8.46658325 C-1.12117631 7.25903444 -1.1220981 6.05148563 -1.12304783 4.80734444 C-1 2 -1 2 0 0 Z " fill="#C3C1BD" transform="translate(472,474)"/>
</svg>
